<mxfile host="Electron" agent="Mozilla/5.0 (Windows NT 10.0; Win64; x64) AppleWebKit/537.36 (KHTML, like Gecko) draw.io/26.0.16 Chrome/132.0.6834.196 Electron/34.2.0 Safari/537.36" version="26.0.16">
  <diagram name="Page-1" id="aZ9lnBMSzIPI2gxsw2g1">
    <mxGraphModel dx="3936" dy="953" grid="1" gridSize="10" guides="1" tooltips="1" connect="1" arrows="1" fold="1" page="1" pageScale="1" pageWidth="850" pageHeight="1100" math="0" shadow="0">
      <root>
        <mxCell id="0" />
        <mxCell id="1" parent="0" />
        <mxCell id="5rHs3WFX6228qdJ6ktJ7-72" style="edgeStyle=orthogonalEdgeStyle;rounded=0;orthogonalLoop=1;jettySize=auto;html=1;exitX=0.5;exitY=1;exitDx=0;exitDy=0;entryX=0.5;entryY=0;entryDx=0;entryDy=0;" parent="1" source="5rHs3WFX6228qdJ6ktJ7-62" target="5rHs3WFX6228qdJ6ktJ7-63" edge="1">
          <mxGeometry relative="1" as="geometry" />
        </mxCell>
        <mxCell id="5rHs3WFX6228qdJ6ktJ7-62" value="Extract Data" style="rounded=1;whiteSpace=wrap;html=1;" parent="1" vertex="1">
          <mxGeometry x="10" y="830" width="120" height="30" as="geometry" />
        </mxCell>
        <mxCell id="5rHs3WFX6228qdJ6ktJ7-85" style="edgeStyle=orthogonalEdgeStyle;rounded=0;orthogonalLoop=1;jettySize=auto;html=1;exitX=1;exitY=0.5;exitDx=0;exitDy=0;entryX=0;entryY=0.5;entryDx=0;entryDy=0;" parent="1" source="5rHs3WFX6228qdJ6ktJ7-63" target="5rHs3WFX6228qdJ6ktJ7-75" edge="1">
          <mxGeometry relative="1" as="geometry" />
        </mxCell>
        <mxCell id="5rHs3WFX6228qdJ6ktJ7-63" value="Data Staging" style="rounded=1;whiteSpace=wrap;html=1;" parent="1" vertex="1">
          <mxGeometry x="10" y="890" width="120" height="30" as="geometry" />
        </mxCell>
        <mxCell id="5rHs3WFX6228qdJ6ktJ7-71" style="edgeStyle=orthogonalEdgeStyle;rounded=0;orthogonalLoop=1;jettySize=auto;html=1;exitX=0.5;exitY=1;exitDx=0;exitDy=0;entryX=0.5;entryY=0;entryDx=0;entryDy=0;" parent="1" source="5rHs3WFX6228qdJ6ktJ7-64" target="5rHs3WFX6228qdJ6ktJ7-62" edge="1">
          <mxGeometry relative="1" as="geometry" />
        </mxCell>
        <mxCell id="5rHs3WFX6228qdJ6ktJ7-64" value="Establish Connection" style="rounded=1;whiteSpace=wrap;html=1;" parent="1" vertex="1">
          <mxGeometry x="10" y="760" width="120" height="40" as="geometry" />
        </mxCell>
        <mxCell id="5rHs3WFX6228qdJ6ktJ7-70" style="edgeStyle=orthogonalEdgeStyle;rounded=0;orthogonalLoop=1;jettySize=auto;html=1;exitX=0.5;exitY=1;exitDx=0;exitDy=0;entryX=0.5;entryY=0;entryDx=0;entryDy=0;" parent="1" source="5rHs3WFX6228qdJ6ktJ7-65" target="5rHs3WFX6228qdJ6ktJ7-64" edge="1">
          <mxGeometry relative="1" as="geometry" />
        </mxCell>
        <mxCell id="5rHs3WFX6228qdJ6ktJ7-65" value="Understand Data Structure" style="rounded=1;whiteSpace=wrap;html=1;" parent="1" vertex="1">
          <mxGeometry x="10" y="690" width="120" height="40" as="geometry" />
        </mxCell>
        <mxCell id="5rHs3WFX6228qdJ6ktJ7-69" style="edgeStyle=orthogonalEdgeStyle;rounded=0;orthogonalLoop=1;jettySize=auto;html=1;exitX=0.5;exitY=1;exitDx=0;exitDy=0;" parent="1" source="5rHs3WFX6228qdJ6ktJ7-66" target="5rHs3WFX6228qdJ6ktJ7-65" edge="1">
          <mxGeometry relative="1" as="geometry" />
        </mxCell>
        <mxCell id="5rHs3WFX6228qdJ6ktJ7-66" value="Identify Sources" style="rounded=1;whiteSpace=wrap;html=1;" parent="1" vertex="1">
          <mxGeometry x="10" y="620" width="120" height="40" as="geometry" />
        </mxCell>
        <mxCell id="5rHs3WFX6228qdJ6ktJ7-84" style="edgeStyle=orthogonalEdgeStyle;rounded=0;orthogonalLoop=1;jettySize=auto;html=1;exitX=1;exitY=0.5;exitDx=0;exitDy=0;entryX=0;entryY=0.5;entryDx=0;entryDy=0;" parent="1" source="5rHs3WFX6228qdJ6ktJ7-73" target="5rHs3WFX6228qdJ6ktJ7-83" edge="1">
          <mxGeometry relative="1" as="geometry" />
        </mxCell>
        <mxCell id="5rHs3WFX6228qdJ6ktJ7-73" value="Source Data Identification and Extraction (Extract)" style="rounded=1;whiteSpace=wrap;html=1;" parent="1" vertex="1">
          <mxGeometry x="-60" y="540" width="250" height="50" as="geometry" />
        </mxCell>
        <mxCell id="5rHs3WFX6228qdJ6ktJ7-80" style="edgeStyle=orthogonalEdgeStyle;rounded=0;orthogonalLoop=1;jettySize=auto;html=1;exitX=0.5;exitY=1;exitDx=0;exitDy=0;entryX=0.5;entryY=0;entryDx=0;entryDy=0;" parent="1" source="5rHs3WFX6228qdJ6ktJ7-75" target="5rHs3WFX6228qdJ6ktJ7-76" edge="1">
          <mxGeometry relative="1" as="geometry" />
        </mxCell>
        <mxCell id="5rHs3WFX6228qdJ6ktJ7-75" value="Data Profiling" style="rounded=1;whiteSpace=wrap;html=1;" parent="1" vertex="1">
          <mxGeometry x="305" y="620" width="120" height="40" as="geometry" />
        </mxCell>
        <mxCell id="5rHs3WFX6228qdJ6ktJ7-81" style="edgeStyle=orthogonalEdgeStyle;rounded=0;orthogonalLoop=1;jettySize=auto;html=1;exitX=0.5;exitY=1;exitDx=0;exitDy=0;entryX=0.5;entryY=0;entryDx=0;entryDy=0;" parent="1" source="5rHs3WFX6228qdJ6ktJ7-76" target="5rHs3WFX6228qdJ6ktJ7-77" edge="1">
          <mxGeometry relative="1" as="geometry" />
        </mxCell>
        <mxCell id="5rHs3WFX6228qdJ6ktJ7-76" value="Data Cleansing&amp;nbsp;" style="rounded=1;whiteSpace=wrap;html=1;arcSize=50;" parent="1" vertex="1">
          <mxGeometry x="300" y="690" width="120" height="40" as="geometry" />
        </mxCell>
        <mxCell id="5rHs3WFX6228qdJ6ktJ7-82" style="edgeStyle=orthogonalEdgeStyle;rounded=0;orthogonalLoop=1;jettySize=auto;html=1;exitX=0.5;exitY=1;exitDx=0;exitDy=0;entryX=0.5;entryY=0;entryDx=0;entryDy=0;" parent="1" source="5rHs3WFX6228qdJ6ktJ7-77" target="5rHs3WFX6228qdJ6ktJ7-78" edge="1">
          <mxGeometry relative="1" as="geometry" />
        </mxCell>
        <mxCell id="5rHs3WFX6228qdJ6ktJ7-77" value="Data Transformation" style="rounded=1;whiteSpace=wrap;html=1;" parent="1" vertex="1">
          <mxGeometry x="305" y="760" width="120" height="40" as="geometry" />
        </mxCell>
        <mxCell id="5rHs3WFX6228qdJ6ktJ7-96" style="edgeStyle=orthogonalEdgeStyle;rounded=0;orthogonalLoop=1;jettySize=auto;html=1;exitX=1;exitY=0.25;exitDx=0;exitDy=0;entryX=0;entryY=0.5;entryDx=0;entryDy=0;" parent="1" source="5rHs3WFX6228qdJ6ktJ7-78" target="5rHs3WFX6228qdJ6ktJ7-86" edge="1">
          <mxGeometry relative="1" as="geometry">
            <Array as="points">
              <mxPoint x="425" y="850" />
              <mxPoint x="483" y="850" />
              <mxPoint x="483" y="640" />
            </Array>
          </mxGeometry>
        </mxCell>
        <mxCell id="5rHs3WFX6228qdJ6ktJ7-78" value="Apply Business Rule&amp;nbsp;" style="rounded=1;whiteSpace=wrap;html=1;" parent="1" vertex="1">
          <mxGeometry x="300" y="830" width="125" height="40" as="geometry" />
        </mxCell>
        <mxCell id="5rHs3WFX6228qdJ6ktJ7-98" style="edgeStyle=orthogonalEdgeStyle;rounded=0;orthogonalLoop=1;jettySize=auto;html=1;exitX=1;exitY=0.5;exitDx=0;exitDy=0;entryX=0;entryY=0.5;entryDx=0;entryDy=0;" parent="1" source="5rHs3WFX6228qdJ6ktJ7-83" target="5rHs3WFX6228qdJ6ktJ7-97" edge="1">
          <mxGeometry relative="1" as="geometry" />
        </mxCell>
        <mxCell id="5rHs3WFX6228qdJ6ktJ7-83" value="&lt;br&gt;Data Cleansing and Transformation&amp;nbsp;&lt;div&gt;(Transform)&lt;br&gt;&lt;br&gt;&lt;/div&gt;" style="rounded=1;whiteSpace=wrap;html=1;" parent="1" vertex="1">
          <mxGeometry x="245" y="540" width="230" height="50" as="geometry" />
        </mxCell>
        <mxCell id="5rHs3WFX6228qdJ6ktJ7-92" style="edgeStyle=orthogonalEdgeStyle;rounded=0;orthogonalLoop=1;jettySize=auto;html=1;exitX=0.5;exitY=1;exitDx=0;exitDy=0;entryX=0.5;entryY=0;entryDx=0;entryDy=0;" parent="1" source="5rHs3WFX6228qdJ6ktJ7-86" target="5rHs3WFX6228qdJ6ktJ7-87" edge="1">
          <mxGeometry relative="1" as="geometry" />
        </mxCell>
        <mxCell id="5rHs3WFX6228qdJ6ktJ7-86" value="Target System Selection" style="rounded=1;whiteSpace=wrap;html=1;" parent="1" vertex="1">
          <mxGeometry x="540" y="620" width="120" height="40" as="geometry" />
        </mxCell>
        <mxCell id="5rHs3WFX6228qdJ6ktJ7-93" style="edgeStyle=orthogonalEdgeStyle;rounded=0;orthogonalLoop=1;jettySize=auto;html=1;exitX=0.5;exitY=1;exitDx=0;exitDy=0;entryX=0.5;entryY=0;entryDx=0;entryDy=0;" parent="1" source="5rHs3WFX6228qdJ6ktJ7-87" target="5rHs3WFX6228qdJ6ktJ7-88" edge="1">
          <mxGeometry relative="1" as="geometry" />
        </mxCell>
        <mxCell id="5rHs3WFX6228qdJ6ktJ7-87" value="Design Target Schema&amp;nbsp;&amp;nbsp;" style="rounded=1;whiteSpace=wrap;html=1;" parent="1" vertex="1">
          <mxGeometry x="540" y="690" width="120" height="40" as="geometry" />
        </mxCell>
        <mxCell id="5rHs3WFX6228qdJ6ktJ7-94" style="edgeStyle=orthogonalEdgeStyle;rounded=0;orthogonalLoop=1;jettySize=auto;html=1;exitX=0.5;exitY=1;exitDx=0;exitDy=0;entryX=0.5;entryY=0;entryDx=0;entryDy=0;" parent="1" source="5rHs3WFX6228qdJ6ktJ7-88" target="5rHs3WFX6228qdJ6ktJ7-89" edge="1">
          <mxGeometry relative="1" as="geometry" />
        </mxCell>
        <mxCell id="5rHs3WFX6228qdJ6ktJ7-88" value="Transformation Data Loading" style="rounded=1;whiteSpace=wrap;html=1;" parent="1" vertex="1">
          <mxGeometry x="540" y="760" width="115" height="40" as="geometry" />
        </mxCell>
        <mxCell id="5rHs3WFX6228qdJ6ktJ7-95" style="edgeStyle=orthogonalEdgeStyle;rounded=0;orthogonalLoop=1;jettySize=auto;html=1;exitX=0.5;exitY=1;exitDx=0;exitDy=0;entryX=0.5;entryY=0;entryDx=0;entryDy=0;" parent="1" source="5rHs3WFX6228qdJ6ktJ7-89" target="5rHs3WFX6228qdJ6ktJ7-90" edge="1">
          <mxGeometry relative="1" as="geometry" />
        </mxCell>
        <mxCell id="5rHs3WFX6228qdJ6ktJ7-89" value="Data Validation" style="rounded=1;whiteSpace=wrap;html=1;" parent="1" vertex="1">
          <mxGeometry x="540" y="825" width="113.75" height="40" as="geometry" />
        </mxCell>
        <mxCell id="5rHs3WFX6228qdJ6ktJ7-112" style="edgeStyle=orthogonalEdgeStyle;rounded=0;orthogonalLoop=1;jettySize=auto;html=1;exitX=1;exitY=0.25;exitDx=0;exitDy=0;entryX=0;entryY=0.5;entryDx=0;entryDy=0;" parent="1" source="5rHs3WFX6228qdJ6ktJ7-90" target="5rHs3WFX6228qdJ6ktJ7-106" edge="1">
          <mxGeometry relative="1" as="geometry">
            <Array as="points">
              <mxPoint x="650" y="910" />
              <mxPoint x="695" y="910" />
              <mxPoint x="695" y="640" />
            </Array>
          </mxGeometry>
        </mxCell>
        <mxCell id="5rHs3WFX6228qdJ6ktJ7-90" value="Indexing and Optimization" style="rounded=1;whiteSpace=wrap;html=1;" parent="1" vertex="1">
          <mxGeometry x="540" y="890" width="120" height="40" as="geometry" />
        </mxCell>
        <mxCell id="5rHs3WFX6228qdJ6ktJ7-100" style="edgeStyle=orthogonalEdgeStyle;rounded=0;orthogonalLoop=1;jettySize=auto;html=1;exitX=1;exitY=0.5;exitDx=0;exitDy=0;entryX=0;entryY=0.5;entryDx=0;entryDy=0;" parent="1" source="5rHs3WFX6228qdJ6ktJ7-97" target="5rHs3WFX6228qdJ6ktJ7-99" edge="1">
          <mxGeometry relative="1" as="geometry" />
        </mxCell>
        <mxCell id="5rHs3WFX6228qdJ6ktJ7-97" value="&lt;div&gt;Data Loading (Load)&lt;/div&gt;" style="rounded=1;whiteSpace=wrap;html=1;" parent="1" vertex="1">
          <mxGeometry x="510" y="540" width="180" height="50" as="geometry" />
        </mxCell>
        <mxCell id="-rF22zoH6fm_W0QOkHN4-22" style="edgeStyle=orthogonalEdgeStyle;rounded=0;orthogonalLoop=1;jettySize=auto;html=1;exitX=1;exitY=0.5;exitDx=0;exitDy=0;entryX=0;entryY=0.5;entryDx=0;entryDy=0;" edge="1" parent="1" source="5rHs3WFX6228qdJ6ktJ7-99" target="5rHs3WFX6228qdJ6ktJ7-127">
          <mxGeometry relative="1" as="geometry" />
        </mxCell>
        <mxCell id="5rHs3WFX6228qdJ6ktJ7-99" value="&lt;div&gt;Monitoring and Maintenance&lt;/div&gt;" style="rounded=1;whiteSpace=wrap;html=1;" parent="1" vertex="1">
          <mxGeometry x="720" y="540" width="190" height="50" as="geometry" />
        </mxCell>
        <mxCell id="5rHs3WFX6228qdJ6ktJ7-101" value="Data Quality Monitoring" style="rounded=1;whiteSpace=wrap;html=1;" parent="1" vertex="1">
          <mxGeometry x="765" y="900" width="135" height="40" as="geometry" />
        </mxCell>
        <mxCell id="5rHs3WFX6228qdJ6ktJ7-111" style="edgeStyle=orthogonalEdgeStyle;rounded=0;orthogonalLoop=1;jettySize=auto;html=1;exitX=0.5;exitY=1;exitDx=0;exitDy=0;entryX=0.5;entryY=0;entryDx=0;entryDy=0;" parent="1" source="5rHs3WFX6228qdJ6ktJ7-102" target="5rHs3WFX6228qdJ6ktJ7-101" edge="1">
          <mxGeometry relative="1" as="geometry" />
        </mxCell>
        <mxCell id="5rHs3WFX6228qdJ6ktJ7-102" value="Error Handling" style="rounded=1;whiteSpace=wrap;html=1;" parent="1" vertex="1">
          <mxGeometry x="765" y="850" width="122.5" height="30" as="geometry" />
        </mxCell>
        <mxCell id="5rHs3WFX6228qdJ6ktJ7-110" style="edgeStyle=orthogonalEdgeStyle;rounded=0;orthogonalLoop=1;jettySize=auto;html=1;exitX=0.5;exitY=1;exitDx=0;exitDy=0;entryX=0.5;entryY=0;entryDx=0;entryDy=0;" parent="1" source="5rHs3WFX6228qdJ6ktJ7-103" target="5rHs3WFX6228qdJ6ktJ7-102" edge="1">
          <mxGeometry relative="1" as="geometry" />
        </mxCell>
        <mxCell id="5rHs3WFX6228qdJ6ktJ7-103" value="Performance Tuning" style="rounded=1;whiteSpace=wrap;html=1;" parent="1" vertex="1">
          <mxGeometry x="765" y="790" width="122.5" height="40" as="geometry" />
        </mxCell>
        <mxCell id="5rHs3WFX6228qdJ6ktJ7-109" style="edgeStyle=orthogonalEdgeStyle;rounded=0;orthogonalLoop=1;jettySize=auto;html=1;exitX=0.5;exitY=1;exitDx=0;exitDy=0;entryX=0.5;entryY=0;entryDx=0;entryDy=0;" parent="1" source="5rHs3WFX6228qdJ6ktJ7-104" target="5rHs3WFX6228qdJ6ktJ7-103" edge="1">
          <mxGeometry relative="1" as="geometry" />
        </mxCell>
        <mxCell id="5rHs3WFX6228qdJ6ktJ7-104" value="Logging" style="rounded=1;whiteSpace=wrap;html=1;" parent="1" vertex="1">
          <mxGeometry x="765" y="740" width="115" height="30" as="geometry" />
        </mxCell>
        <mxCell id="5rHs3WFX6228qdJ6ktJ7-108" style="edgeStyle=orthogonalEdgeStyle;rounded=0;orthogonalLoop=1;jettySize=auto;html=1;exitX=0.5;exitY=1;exitDx=0;exitDy=0;entryX=0.5;entryY=0;entryDx=0;entryDy=0;" parent="1" source="5rHs3WFX6228qdJ6ktJ7-105" target="5rHs3WFX6228qdJ6ktJ7-104" edge="1">
          <mxGeometry relative="1" as="geometry" />
        </mxCell>
        <mxCell id="5rHs3WFX6228qdJ6ktJ7-105" value="Monitoring" style="rounded=1;whiteSpace=wrap;html=1;" parent="1" vertex="1">
          <mxGeometry x="765" y="680" width="110" height="40" as="geometry" />
        </mxCell>
        <mxCell id="5rHs3WFX6228qdJ6ktJ7-107" style="edgeStyle=orthogonalEdgeStyle;rounded=0;orthogonalLoop=1;jettySize=auto;html=1;exitX=0.5;exitY=1;exitDx=0;exitDy=0;entryX=0.5;entryY=0;entryDx=0;entryDy=0;" parent="1" source="5rHs3WFX6228qdJ6ktJ7-106" target="5rHs3WFX6228qdJ6ktJ7-105" edge="1">
          <mxGeometry relative="1" as="geometry" />
        </mxCell>
        <mxCell id="5rHs3WFX6228qdJ6ktJ7-106" value="Job Scheduling" style="rounded=1;whiteSpace=wrap;html=1;" parent="1" vertex="1">
          <mxGeometry x="760" y="620" width="120" height="40" as="geometry" />
        </mxCell>
        <mxCell id="5rHs3WFX6228qdJ6ktJ7-115" value="" style="endArrow=none;dashed=1;html=1;dashPattern=1 3;strokeWidth=2;rounded=0;entryX=0.5;entryY=1;entryDx=0;entryDy=0;exitX=0.458;exitY=0;exitDx=0;exitDy=0;exitPerimeter=0;" parent="1" source="5rHs3WFX6228qdJ6ktJ7-75" target="5rHs3WFX6228qdJ6ktJ7-83" edge="1">
          <mxGeometry width="50" height="50" relative="1" as="geometry">
            <mxPoint x="365" y="620" as="sourcePoint" />
            <mxPoint x="410" y="570" as="targetPoint" />
          </mxGeometry>
        </mxCell>
        <mxCell id="5rHs3WFX6228qdJ6ktJ7-117" value="" style="endArrow=none;dashed=1;html=1;rounded=0;entryX=0.5;entryY=1;entryDx=0;entryDy=0;exitX=0.45;exitY=-0.025;exitDx=0;exitDy=0;exitPerimeter=0;" parent="1" edge="1">
          <mxGeometry width="50" height="50" relative="1" as="geometry">
            <mxPoint x="1054.5" y="619" as="sourcePoint" />
            <mxPoint x="1055.5" y="590" as="targetPoint" />
          </mxGeometry>
        </mxCell>
        <mxCell id="5rHs3WFX6228qdJ6ktJ7-121" value="" style="endArrow=none;dashed=1;html=1;dashPattern=1 3;strokeWidth=2;rounded=0;exitX=0.575;exitY=-0.025;exitDx=0;exitDy=0;exitPerimeter=0;" parent="1" source="5rHs3WFX6228qdJ6ktJ7-86" edge="1">
          <mxGeometry width="50" height="50" relative="1" as="geometry">
            <mxPoint x="560" y="640" as="sourcePoint" />
            <mxPoint x="610" y="590" as="targetPoint" />
          </mxGeometry>
        </mxCell>
        <mxCell id="5rHs3WFX6228qdJ6ktJ7-123" value="" style="endArrow=none;dashed=1;html=1;dashPattern=1 3;strokeWidth=2;rounded=0;entryX=0.5;entryY=1;entryDx=0;entryDy=0;exitX=0.458;exitY=0;exitDx=0;exitDy=0;exitPerimeter=0;" parent="1" source="5rHs3WFX6228qdJ6ktJ7-106" target="5rHs3WFX6228qdJ6ktJ7-99" edge="1">
          <mxGeometry width="50" height="50" relative="1" as="geometry">
            <mxPoint x="820" y="620" as="sourcePoint" />
            <mxPoint x="815" y="600" as="targetPoint" />
          </mxGeometry>
        </mxCell>
        <mxCell id="-rF22zoH6fm_W0QOkHN4-13" style="edgeStyle=orthogonalEdgeStyle;rounded=0;orthogonalLoop=1;jettySize=auto;html=1;exitX=1;exitY=0.5;exitDx=0;exitDy=0;entryX=0;entryY=0.5;entryDx=0;entryDy=0;" edge="1" parent="1" source="5rHs3WFX6228qdJ6ktJ7-125" target="5rHs3WFX6228qdJ6ktJ7-126">
          <mxGeometry relative="1" as="geometry" />
        </mxCell>
        <mxCell id="5rHs3WFX6228qdJ6ktJ7-125" value="Customer Registration" style="rounded=1;whiteSpace=wrap;html=1;" parent="1" vertex="1">
          <mxGeometry x="-1320" y="540" width="160" height="50" as="geometry" />
        </mxCell>
        <mxCell id="-rF22zoH6fm_W0QOkHN4-14" style="edgeStyle=orthogonalEdgeStyle;rounded=0;orthogonalLoop=1;jettySize=auto;html=1;exitX=1;exitY=0.5;exitDx=0;exitDy=0;entryX=0;entryY=0.5;entryDx=0;entryDy=0;" edge="1" parent="1" source="5rHs3WFX6228qdJ6ktJ7-126" target="5rHs3WFX6228qdJ6ktJ7-147">
          <mxGeometry relative="1" as="geometry" />
        </mxCell>
        <mxCell id="5rHs3WFX6228qdJ6ktJ7-126" value="Customer Login" style="rounded=1;whiteSpace=wrap;html=1;" parent="1" vertex="1">
          <mxGeometry x="-1130" y="540" width="170" height="50" as="geometry" />
        </mxCell>
        <mxCell id="-rF22zoH6fm_W0QOkHN4-19" style="edgeStyle=orthogonalEdgeStyle;rounded=0;orthogonalLoop=1;jettySize=auto;html=1;exitX=1;exitY=0.5;exitDx=0;exitDy=0;entryX=0;entryY=0.5;entryDx=0;entryDy=0;" edge="1" parent="1" source="5rHs3WFX6228qdJ6ktJ7-127" target="5rHs3WFX6228qdJ6ktJ7-132">
          <mxGeometry relative="1" as="geometry" />
        </mxCell>
        <mxCell id="5rHs3WFX6228qdJ6ktJ7-127" value="Data Governance" style="rounded=1;whiteSpace=wrap;html=1;" parent="1" vertex="1">
          <mxGeometry x="960" y="540" width="190" height="50" as="geometry" />
        </mxCell>
        <mxCell id="5rHs3WFX6228qdJ6ktJ7-128" value="Access Control &amp;amp; Data Security Setup" style="rounded=1;whiteSpace=wrap;html=1;" parent="1" vertex="1">
          <mxGeometry x="960" y="620" width="190" height="50" as="geometry" />
        </mxCell>
        <mxCell id="5rHs3WFX6228qdJ6ktJ7-131" value="" style="endArrow=none;dashed=1;html=1;rounded=0;entryX=0.5;entryY=1;entryDx=0;entryDy=0;exitX=0.45;exitY=-0.025;exitDx=0;exitDy=0;exitPerimeter=0;" parent="1" edge="1" target="5rHs3WFX6228qdJ6ktJ7-132">
          <mxGeometry width="50" height="50" relative="1" as="geometry">
            <mxPoint x="1304.5" y="619" as="sourcePoint" />
            <mxPoint x="1305.5" y="590" as="targetPoint" />
          </mxGeometry>
        </mxCell>
        <mxCell id="-rF22zoH6fm_W0QOkHN4-20" style="edgeStyle=orthogonalEdgeStyle;rounded=0;orthogonalLoop=1;jettySize=auto;html=1;exitX=1;exitY=0.5;exitDx=0;exitDy=0;entryX=0;entryY=0.5;entryDx=0;entryDy=0;" edge="1" parent="1" source="5rHs3WFX6228qdJ6ktJ7-132" target="-rF22zoH6fm_W0QOkHN4-2">
          <mxGeometry relative="1" as="geometry" />
        </mxCell>
        <mxCell id="5rHs3WFX6228qdJ6ktJ7-132" value="Data Lineage &amp;amp; Catalog" style="rounded=1;whiteSpace=wrap;html=1;" parent="1" vertex="1">
          <mxGeometry x="1210" y="540" width="190" height="50" as="geometry" />
        </mxCell>
        <mxCell id="5rHs3WFX6228qdJ6ktJ7-133" value="Source Metadata Retrieval" style="rounded=1;whiteSpace=wrap;html=1;" parent="1" vertex="1">
          <mxGeometry x="1210" y="620" width="190" height="50" as="geometry" />
        </mxCell>
        <mxCell id="5rHs3WFX6228qdJ6ktJ7-137" value="" style="endArrow=none;dashed=1;html=1;rounded=0;entryX=0.5;entryY=1;entryDx=0;entryDy=0;exitX=0.45;exitY=-0.025;exitDx=0;exitDy=0;exitPerimeter=0;" parent="1" edge="1">
          <mxGeometry width="50" height="50" relative="1" as="geometry">
            <mxPoint x="-215.5" y="619" as="sourcePoint" />
            <mxPoint x="-214.5" y="590" as="targetPoint" />
          </mxGeometry>
        </mxCell>
        <mxCell id="-rF22zoH6fm_W0QOkHN4-18" style="edgeStyle=orthogonalEdgeStyle;rounded=0;orthogonalLoop=1;jettySize=auto;html=1;exitX=1;exitY=0.5;exitDx=0;exitDy=0;entryX=0;entryY=0.5;entryDx=0;entryDy=0;" edge="1" parent="1" source="5rHs3WFX6228qdJ6ktJ7-138" target="5rHs3WFX6228qdJ6ktJ7-73">
          <mxGeometry relative="1" as="geometry" />
        </mxCell>
        <mxCell id="5rHs3WFX6228qdJ6ktJ7-138" value="Data Entity" style="rounded=1;whiteSpace=wrap;html=1;" parent="1" vertex="1">
          <mxGeometry x="-310" y="540" width="190" height="50" as="geometry" />
        </mxCell>
        <mxCell id="5rHs3WFX6228qdJ6ktJ7-139" value="&lt;p style=&quot;margin-top:12.0pt;mso-add-space:auto;&lt;br/&gt;text-indent:-18.0pt;line-height:115%;mso-list:l0 level1 lfo1&quot; class=&quot;MsoListParagraph&quot;&gt;&lt;span style=&quot;font-family:Symbol;mso-fareast-font-family:Symbol;mso-bidi-font-family:&lt;br/&gt;Symbol;mso-ansi-language:EN-IN&quot;&gt;&lt;span style=&quot;font-variant-numeric: normal; font-variant-east-asian: normal; font-variant-alternates: normal; font-size-adjust: none; font-kerning: auto; font-optical-sizing: auto; font-feature-settings: normal; font-variation-settings: normal; font-variant-position: normal; font-variant-emoji: normal; font-stretch: normal; font-size: 7pt; line-height: normal; font-family: &amp;quot;Times New Roman&amp;quot;;&quot;&gt;&lt;br&gt;&lt;/span&gt;&lt;/span&gt;&lt;span lang=&quot;EN-US&quot;&gt;Capability for AI to offer&lt;br&gt;table suggestions based on the search query from the connected source.&lt;/span&gt;&lt;/p&gt;" style="rounded=1;whiteSpace=wrap;html=1;" parent="1" vertex="1">
          <mxGeometry x="-310" y="620" width="190" height="100" as="geometry" />
        </mxCell>
        <mxCell id="5rHs3WFX6228qdJ6ktJ7-140" value="&lt;span style=&quot;color: oklch(0.304 0.04 213.681); text-align: left; background-color: oklch(0.99 0.004 106.471);&quot;&gt;&lt;font style=&quot;font-size: 12px;&quot; face=&quot;Helvetica&quot;&gt;Visual lineage mapping&lt;/font&gt;&lt;/span&gt;" style="rounded=1;whiteSpace=wrap;html=1;" parent="1" vertex="1">
          <mxGeometry x="1210" y="700" width="190" height="50" as="geometry" />
        </mxCell>
        <mxCell id="5rHs3WFX6228qdJ6ktJ7-141" value="Trial Run" style="rounded=1;whiteSpace=wrap;html=1;" parent="1" vertex="1">
          <mxGeometry x="1690" y="540" width="190" height="50" as="geometry" />
        </mxCell>
        <mxCell id="5rHs3WFX6228qdJ6ktJ7-143" value="Impact Simulation Engine" style="rounded=1;whiteSpace=wrap;html=1;" parent="1" vertex="1">
          <mxGeometry x="1730" y="680" width="120" height="40" as="geometry" />
        </mxCell>
        <mxCell id="5rHs3WFX6228qdJ6ktJ7-145" value="Pipeline Execution" style="rounded=1;whiteSpace=wrap;html=1;" parent="1" vertex="1">
          <mxGeometry x="1730" y="620" width="120" height="40" as="geometry" />
        </mxCell>
        <mxCell id="5rHs3WFX6228qdJ6ktJ7-146" value="Statiscal Equivalence Testing" style="rounded=1;whiteSpace=wrap;html=1;" parent="1" vertex="1">
          <mxGeometry x="1730" y="750" width="120" height="40" as="geometry" />
        </mxCell>
        <mxCell id="-rF22zoH6fm_W0QOkHN4-15" style="edgeStyle=orthogonalEdgeStyle;rounded=0;orthogonalLoop=1;jettySize=auto;html=1;exitX=1;exitY=0.5;exitDx=0;exitDy=0;" edge="1" parent="1" source="5rHs3WFX6228qdJ6ktJ7-147" target="5rHs3WFX6228qdJ6ktJ7-148">
          <mxGeometry relative="1" as="geometry" />
        </mxCell>
        <mxCell id="5rHs3WFX6228qdJ6ktJ7-147" value="User Creation" style="rounded=1;whiteSpace=wrap;html=1;" parent="1" vertex="1">
          <mxGeometry x="-930" y="540" width="160" height="50" as="geometry" />
        </mxCell>
        <mxCell id="-rF22zoH6fm_W0QOkHN4-16" style="edgeStyle=orthogonalEdgeStyle;rounded=0;orthogonalLoop=1;jettySize=auto;html=1;exitX=1;exitY=0.5;exitDx=0;exitDy=0;entryX=0;entryY=0.5;entryDx=0;entryDy=0;" edge="1" parent="1" source="5rHs3WFX6228qdJ6ktJ7-148" target="5rHs3WFX6228qdJ6ktJ7-149">
          <mxGeometry relative="1" as="geometry" />
        </mxCell>
        <mxCell id="5rHs3WFX6228qdJ6ktJ7-148" value="Module Creation" style="rounded=1;whiteSpace=wrap;html=1;" parent="1" vertex="1">
          <mxGeometry x="-740" y="540" width="170" height="50" as="geometry" />
        </mxCell>
        <mxCell id="-rF22zoH6fm_W0QOkHN4-17" style="edgeStyle=orthogonalEdgeStyle;rounded=0;orthogonalLoop=1;jettySize=auto;html=1;exitX=1;exitY=0.5;exitDx=0;exitDy=0;entryX=0;entryY=0.5;entryDx=0;entryDy=0;" edge="1" parent="1" source="5rHs3WFX6228qdJ6ktJ7-149" target="5rHs3WFX6228qdJ6ktJ7-138">
          <mxGeometry relative="1" as="geometry" />
        </mxCell>
        <mxCell id="5rHs3WFX6228qdJ6ktJ7-149" value="Confg&amp;nbsp;" style="rounded=1;whiteSpace=wrap;html=1;" parent="1" vertex="1">
          <mxGeometry x="-540" y="540" width="170" height="50" as="geometry" />
        </mxCell>
        <mxCell id="PIinAINylWwvIkH61Zdz-1" value="&lt;p style=&quot;margin-top:12.0pt;mso-add-space:auto;&lt;br/&gt;text-indent:-18.0pt;line-height:115%;mso-list:l0 level1 lfo1&quot; class=&quot;MsoListParagraph&quot;&gt;&lt;span style=&quot;font-size:10.0pt;mso-bidi-font-size:12.0pt;&lt;br/&gt;font-family:&amp;quot;Open Sans&amp;quot;,sans-serif;mso-fareast-font-family:Cambria;mso-bidi-font-family:&lt;br/&gt;Cambria;mso-ansi-language:EN-IN;mso-fareast-language:EN-IN;mso-bidi-language:&lt;br/&gt;AR-SA&quot;&gt;Connect the source and destination data.&lt;/span&gt;&lt;/p&gt;" style="rounded=1;whiteSpace=wrap;html=1;" parent="1" vertex="1">
          <mxGeometry x="-550" y="620" width="190" height="100" as="geometry" />
        </mxCell>
        <mxCell id="PIinAINylWwvIkH61Zdz-3" value="ETL" style="rounded=0;whiteSpace=wrap;html=1;" parent="1" vertex="1">
          <mxGeometry x="20" y="1010" width="660" height="60" as="geometry" />
        </mxCell>
        <mxCell id="-rF22zoH6fm_W0QOkHN4-1" value="" style="endArrow=none;dashed=1;html=1;rounded=0;entryX=0.5;entryY=1;entryDx=0;entryDy=0;exitX=0.45;exitY=-0.025;exitDx=0;exitDy=0;exitPerimeter=0;" edge="1" parent="1">
          <mxGeometry width="50" height="50" relative="1" as="geometry">
            <mxPoint x="1554.5" y="619" as="sourcePoint" />
            <mxPoint x="1555.5" y="590" as="targetPoint" />
          </mxGeometry>
        </mxCell>
        <mxCell id="-rF22zoH6fm_W0QOkHN4-21" style="edgeStyle=orthogonalEdgeStyle;rounded=0;orthogonalLoop=1;jettySize=auto;html=1;exitX=1;exitY=0.5;exitDx=0;exitDy=0;entryX=0;entryY=0.5;entryDx=0;entryDy=0;" edge="1" parent="1" source="-rF22zoH6fm_W0QOkHN4-2" target="5rHs3WFX6228qdJ6ktJ7-141">
          <mxGeometry relative="1" as="geometry" />
        </mxCell>
        <mxCell id="-rF22zoH6fm_W0QOkHN4-2" value="Analytics" style="rounded=1;whiteSpace=wrap;html=1;" vertex="1" parent="1">
          <mxGeometry x="1460" y="540" width="190" height="50" as="geometry" />
        </mxCell>
        <mxCell id="-rF22zoH6fm_W0QOkHN4-3" value="Visualization Report" style="rounded=1;whiteSpace=wrap;html=1;" vertex="1" parent="1">
          <mxGeometry x="1460" y="620" width="190" height="50" as="geometry" />
        </mxCell>
        <mxCell id="-rF22zoH6fm_W0QOkHN4-5" value="" style="endArrow=none;dashed=1;html=1;rounded=0;entryX=0.5;entryY=1;entryDx=0;entryDy=0;exitX=0.45;exitY=-0.025;exitDx=0;exitDy=0;exitPerimeter=0;" edge="1" parent="1">
          <mxGeometry width="50" height="50" relative="1" as="geometry">
            <mxPoint x="-460" y="619" as="sourcePoint" />
            <mxPoint x="-459" y="590" as="targetPoint" />
          </mxGeometry>
        </mxCell>
        <mxCell id="-rF22zoH6fm_W0QOkHN4-8" value="" style="endArrow=none;dashed=1;html=1;rounded=0;entryX=0.5;entryY=1;entryDx=0;entryDy=0;exitX=0.45;exitY=-0.025;exitDx=0;exitDy=0;exitPerimeter=0;" edge="1" parent="1">
          <mxGeometry width="50" height="50" relative="1" as="geometry">
            <mxPoint x="70" y="619" as="sourcePoint" />
            <mxPoint x="71" y="590" as="targetPoint" />
          </mxGeometry>
        </mxCell>
        <mxCell id="-rF22zoH6fm_W0QOkHN4-11" value="" style="endArrow=none;dashed=1;html=1;rounded=0;entryX=0.5;entryY=1;entryDx=0;entryDy=0;exitX=0.45;exitY=-0.025;exitDx=0;exitDy=0;exitPerimeter=0;" edge="1" parent="1">
          <mxGeometry width="50" height="50" relative="1" as="geometry">
            <mxPoint x="1789.5" y="619" as="sourcePoint" />
            <mxPoint x="1790.5" y="590" as="targetPoint" />
          </mxGeometry>
        </mxCell>
        <mxCell id="-rF22zoH6fm_W0QOkHN4-12" value="" style="endArrow=none;dashed=1;html=1;rounded=0;entryX=0.5;entryY=1;entryDx=0;entryDy=0;exitX=0.45;exitY=-0.025;exitDx=0;exitDy=0;exitPerimeter=0;" edge="1" parent="1">
          <mxGeometry width="50" height="50" relative="1" as="geometry">
            <mxPoint x="1304.5" y="699" as="sourcePoint" />
            <mxPoint x="1305" y="670" as="targetPoint" />
          </mxGeometry>
        </mxCell>
      </root>
    </mxGraphModel>
  </diagram>
</mxfile>
